<svg width="47" height="48" viewBox="0 0 47 48" fill="none" xmlns="http://www.w3.org/2000/svg">
<path fill-rule="evenodd" clip-rule="evenodd" d="M24.3121 0.738479L23.2218 2.41517L22.0693 0.780628L23.1765 0L24.3121 0.738479ZM23.2359 5.06431C23.4511 5.28814 23.6819 5.54933 23.9143 5.84768C24.8702 7.07458 25.8344 8.89843 25.9214 11.358C25.9822 13.0777 24.8638 15.2122 23.3532 17.1739C22.6407 18.099 21.918 18.888 21.3716 19.4465C21.0996 19.7246 20.8744 19.9423 20.7202 20.088C20.6432 20.1607 20.5841 20.2152 20.5459 20.2501L20.505 20.2872L20.4973 20.2941C20.4976 20.2939 20.4979 20.2936 21.8242 21.7905C23.1505 23.2875 23.1509 23.2872 23.1513 23.2868L23.1543 23.2841L23.1604 23.2787L23.1794 23.2617C23.195 23.2477 23.2164 23.2283 23.2432 23.2038C23.2969 23.1548 23.3723 23.0852 23.4664 22.9963C23.6544 22.8188 23.9178 22.5638 24.231 22.2437C24.8549 21.6059 25.689 20.6966 26.5224 19.6144C28.1035 17.5612 30.033 14.4441 29.9189 11.2166C29.7953 7.72222 28.4103 5.10998 27.0697 3.3893C26.4011 2.53121 25.7384 1.88701 25.2344 1.45125C24.9817 1.23273 24.7666 1.06465 24.6074 0.946452C24.5277 0.887294 24.4618 0.840447 24.4119 0.805849C24.387 0.788544 24.366 0.774285 24.3493 0.763064L24.3274 0.748503L24.3189 0.742924L24.3153 0.74056L24.3137 0.739484C24.3129 0.738976 24.3121 0.738479 23.2218 2.41517C22.0693 0.780628 22.0687 0.781069 22.0681 0.781522L22.0636 0.78469L22.0561 0.790047L22.0358 0.804639C22.02 0.816083 21.9996 0.830968 21.975 0.849253C21.9258 0.88581 21.8595 0.936045 21.7786 0.999648C21.617 1.12671 21.3959 1.30799 21.1353 1.54105C20.6162 2.00524 19.9282 2.68554 19.2385 3.56336C17.8711 5.30342 16.4002 7.94689 16.4002 11.2873H20.4002C20.4002 9.15533 21.3401 7.36271 22.3836 6.03481C22.6752 5.6637 22.9674 5.33882 23.2359 5.06431ZM24.3802 4.04554C24.3812 4.04484 24.3815 4.04466 24.3802 4.04554V4.04554ZM4.26213 20.9205C4.37099 21.46 4.53312 22.0995 4.77324 22.7797C5.45133 24.7007 6.68419 26.7717 8.91975 28.0035C10.679 28.9728 13.2359 29.4021 15.5523 29.548C16.2601 29.5926 16.9186 29.6093 17.4881 29.6113C16.8601 26.1201 14.5686 23.7138 12.0884 22.2309C9.37231 20.6068 6.37863 20.5159 4.26213 20.9205ZM17.4562 33.6112C16.9774 36.6626 15.7433 38.9398 14.1704 40.5129C12.2408 42.4426 9.6928 43.4249 7.05829 43.4152L7.04358 47.4152C10.6936 47.4286 14.2806 46.0598 16.999 43.3412C19.7264 40.6135 21.4718 36.6384 21.6558 31.62L21.6571 31.5834V31.5468C21.6571 25.1638 17.8528 21.017 14.1411 18.7977C9.39607 15.9606 4.16689 16.517 1.33683 17.5988L0 18.1098L0.0522671 19.54L2.05093 19.4669C0.0522671 19.54 0.0522957 19.5407 0.0523256 19.5416L0.0523916 19.5433L0.0525473 19.5473L0.0529598 19.5573L0.0542424 19.5853C0.0553212 19.6073 0.0568759 19.6363 0.0590705 19.6718C0.063458 19.7427 0.0704126 19.8399 0.0812565 19.9606C0.102921 20.2016 0.14025 20.5377 0.204043 20.9461C0.331093 21.7593 0.566027 22.8779 1.00133 24.1111C1.86474 26.5571 3.58369 29.6303 6.98937 31.5068C9.55226 32.919 12.8466 33.3855 15.3009 33.5401C16.0901 33.5898 16.8222 33.6087 17.4562 33.6112ZM32.1435 18.7977C36.8886 15.9606 42.1178 16.517 44.9478 17.5988L46.2846 18.1098L46.2324 19.54L44.2337 19.4669C46.2324 19.54 46.2323 19.5407 46.2323 19.5416L46.2323 19.5433L46.2321 19.5473L46.2317 19.5573L46.2304 19.5853C46.2293 19.6073 46.2278 19.6363 46.2256 19.6718C46.2212 19.7427 46.2142 19.8399 46.2034 19.9606C46.1817 20.2016 46.1444 20.5377 46.0806 20.9461C45.9535 21.7593 45.7186 22.8779 45.2833 24.1111C44.4199 26.5571 42.701 29.6303 39.2953 31.5068C36.7324 32.919 33.4381 33.3855 30.9837 33.5401C30.1946 33.5898 29.4625 33.6087 28.8285 33.6112C29.3318 36.8118 30.6663 39.1125 32.3212 40.6648C34.3466 42.5647 36.9751 43.461 39.5151 43.4155L39.5868 47.4148C36.0779 47.4778 32.4207 46.2425 29.5847 43.5823C26.7258 40.9006 24.8219 36.8865 24.6289 31.62L24.6275 31.5834V31.5468C24.6275 25.1638 28.4318 21.017 32.1435 18.7977ZM28.7965 29.6113C29.4246 26.1201 31.716 23.7138 34.1962 22.2309C36.9123 20.6068 39.906 20.5159 42.0225 20.9205C41.9136 21.46 41.7515 22.0995 41.5114 22.7797C40.8333 24.7007 39.6004 26.7717 37.3649 28.0035C35.6057 28.9728 33.0487 29.4021 30.7323 29.548C30.0245 29.5926 29.3661 29.6093 28.7965 29.6113ZM42.2353 19.387C42.2353 19.3866 42.2353 19.3867 42.2353 19.387V19.387Z" fill="#1EB7CE"/>
</svg>
